<?xml version="1.0" encoding="UTF-8" standalone="no"?>
<!-- Created with Inkscape (http://www.inkscape.org/) -->

<svg
   version="1.1"
   id="svg1"
   width="76.800003"
   height="57.599998"
   viewBox="0 0 76.800003 57.599998"
   xmlns="http://www.w3.org/2000/svg"
   xmlns:svg="http://www.w3.org/2000/svg">
  <defs
     id="defs1" />
  <g
     id="g1">
    <path
       style="fill:#000000"
       d="m 9.7701793,55.423137 c -0.01778,-0.540493 1.0270617,-3.050698 1.2698217,-3.050698 0.31914,0 1.39369,2.872974 1.16142,3.105242 -0.10249,0.102498 -0.27715,-0.05025 -0.38812,-0.339441 -0.26409,-0.688187 -1.07253,-0.670992 -1.60784,0.0342 -0.2338097,0.308 -0.4296847,0.420814 -0.4352817,0.250697 z m 1.3855417,-1.610698 c -0.1013,-0.264 -0.24079,-0.48 -0.30996,-0.48 -0.0692,0 -0.12576,0.216 -0.12576,0.48 0,0.264 0.13948,0.48 0.30996,0.48 0.17047,0 0.22707,-0.216 0.12576,-0.48 z m 1.69911,1.52 c -0.67543,-1.134079 0.62946,-2.591192 1.49916,-1.674044 0.28303,0.298466 0.18463,0.331885 -0.43399,0.1474 l -0.8,-0.238576 0.77092,0.630785 c 0.43964,0.359733 0.67216,0.790561 0.54111,1.00261 -0.25578,0.413869 -1.35452,0.505703 -1.5772,0.131825 z m 1.06517,-0.4 c 0,-0.176 -0.2245,-0.32 -0.49888,-0.32 -0.27439,0 -0.40989,0.144 -0.30112,0.32 0.10878,0.176 0.33327,0.32 0.49889,0.32 0.16561,0 0.30111,-0.144 0.30111,-0.32 z m 1.024,-0.461938 c 0,-0.987955 0.1013,-1.138062 0.768,-1.138062 0.4224,0 0.768,0.130518 0.768,0.290041 0,0.159523 -0.324,0.227762 -0.72,0.151641 l -0.72,-0.138401 0.73294,0.383032 c 0.88748,0.4638 0.8012,1.356354 -0.14421,1.491749 -0.58967,0.08445 -0.68473,-0.05994 -0.68473,-1.04 z m 1.056,0.461938 c -0.10877,-0.176 -0.33327,-0.32 -0.49888,-0.32 -0.16562,0 -0.30112,0.144 -0.30112,0.32 0,0.176 0.2245,0.32 0.49889,0.32 0.27438,0 0.40989,-0.144 0.30111,-0.32 z m 1.09774,0.133176 c -0.60447,-0.728342 0.0253,-1.573176 1.17275,-1.573176 0.63186,0 0.95551,0.180528 1.03155,0.575372 0.24554,1.274996 -1.36806,2.005413 -2.2043,0.997804 z m 1.56452,-0.718241 c 0.0665,-0.451671 -0.0669,-0.694935 -0.38112,-0.694935 -0.62227,0 -0.94951,0.536038 -0.70933,1.161934 0.26059,0.67907 0.96628,0.376846 1.09045,-0.466999 z m 1.3505,0.760437 c -0.62097,-0.748227 -0.2671,-1.603852 0.70998,-1.716628 0.48249,-0.05569 0.87726,0.03883 0.87726,0.210042 0,0.171213 -0.288,0.235983 -0.64,0.143933 -0.49113,-0.128435 -0.64,-0.0098 -0.64,0.509959 0,0.463988 0.20158,0.677322 0.64,0.677322 0.352,0 0.64,0.144 0.64,0.32 0,0.486673 -1.1503,0.381859 -1.58724,-0.144628 z m 2.22724,-0.655372 c 0,-0.616 0.144,-1.12 0.32,-1.12 0.176,0 0.32,0.504 0.32,1.12 0,0.616 -0.144,1.12 -0.32,1.12 -0.176,0 -0.32,-0.504 -0.32,-1.12 z m 1.12,0.8 c -0.23089,-0.373583 0.0677,-0.96 0.48884,-0.96 0.16009,0 0.19912,0.239622 0.0867,0.532494 -0.13198,0.343944 -0.079,0.455021 0.14968,0.313699 0.61089,-0.377551 0.33853,-1.51148 -0.31335,-1.304581 -0.31454,0.09983 -0.5719,0.02781 -0.5719,-0.160048 0,-0.384493 1.48817,-0.473566 1.69687,-0.101564 0.84881,1.512994 -0.63658,3.136709 -1.53687,1.68 z m 2.57841,-0.08 c -0.5484,-1.805349 -0.14923,-2.905199 0.71421,-1.967909 0.23824,0.258622 0.27205,0.447909 0.08,0.447909 -0.18294,0 -0.33262,0.288 -0.33262,0.64 0,0.352 0.144,0.64 0.32,0.64 0.176,0 0.32,0.144 0.32,0.32 0,0.463399 -0.95765,0.393852 -1.10159,-0.08 z m 1.42159,-0.72 c 0,-0.616 0.144,-1.12 0.32,-1.12 0.176,0 0.32,0.504 0.32,1.12 0,0.616 -0.144,1.12 -0.32,1.12 -0.176,0 -0.32,-0.504 -0.32,-1.12 z m 1.40289,0.658692 c -0.32867,-0.856519 0.0331,-1.617204 0.82245,-1.729083 1.00615,-0.142615 1.72085,0.754045 1.271,1.594595 -0.37805,0.706396 -1.83799,0.800186 -2.09345,0.134488 z m 1.47711,-0.658692 c 0,-0.497778 -0.18133,-0.8 -0.48,-0.8 -0.29866,0 -0.48,0.302222 -0.48,0.8 0,0.497777 0.18134,0.8 0.48,0.8 0.29867,0 0.48,-0.302223 0.48,-0.8 z m 1.28,0 c 0,-1.031112 0.0762,-1.12 0.96,-1.12 0.88381,0 0.96,0.08889 0.96,1.12 0,0.616 -0.144,1.12 -0.32,1.12 -0.176,0 -0.32,-0.432 -0.32,-0.96 0,-0.528 -0.144,-0.96 -0.32,-0.96 -0.176,0 -0.32,0.432 -0.32,0.96 0,0.528 -0.144,0.96 -0.32,0.96 -0.176,0 -0.32,-0.504 -0.32,-1.12 z m 3.81774,0.613176 c -0.60566,-0.729773 0.0254,-1.573176 1.17714,-1.573176 0.73161,0 0.94771,0.159768 1.03312,0.763811 0.17506,1.238138 -1.38139,1.80809 -2.21026,0.809365 z m 1.56452,-0.718241 c 0.0665,-0.451671 -0.067,-0.694935 -0.38112,-0.694935 -0.62227,0 -0.9495,0.536038 -0.70933,1.161934 0.26059,0.67907 0.96628,0.376846 1.09045,-0.466999 z m 1.27753,0.109534 c -0.0716,-0.613542 -0.008,-1.333542 0.14089,-1.6 0.30831,-0.55092 1.19932,-0.659078 1.19932,-0.145584 0,0.186387 -0.144,0.249889 -0.32,0.141115 -0.176,-0.108774 -0.32,-0.05727 -0.32,0.114447 0,0.171721 0.18,0.384851 0.4,0.473623 0.32,0.129123 0.32,0.166456 0,0.186666 -0.2255,0.01424 -0.4,0.444071 -0.4,0.985264 0,1.329068 -0.54092,1.208919 -0.70021,-0.155531 z m 2.94021,-0.484469 c 0,-1.447378 0.0687,-1.599533 0.72,-1.5951 1.10209,0.0075 1.48401,0.39537 1.45329,1.475926 -0.0154,0.542818 0.0738,1.151694 0.19821,1.353058 0.12445,0.201364 0.0603,0.366116 -0.14257,0.366116 -0.20286,0 -0.44416,-0.288 -0.53621,-0.64 -0.0921,-0.352 -0.36657,-0.64 -0.61004,-0.64 -0.24347,0 -0.44268,0.288 -0.44268,0.64 0,0.352 -0.144,0.64 -0.32,0.64 -0.176,0 -0.32,-0.72 -0.32,-1.6 z m 1.52667,-0.7 c -0.19778,-0.593352 -0.88667,-0.691764 -0.88667,-0.126667 0,0.278667 0.228,0.506667 0.50667,0.506667 0.27867,0 0.44967,-0.171 0.38,-0.38 z m 1.35333,0.7 c 0,-1.564445 0.0213,-1.6 0.96,-1.6 0.528,0 0.96,0.153703 0.96,0.341564 0,0.19594 -0.27286,0.254961 -0.64,0.138436 -0.44506,-0.141258 -0.64,-0.05751 -0.64,0.274972 0,0.262955 0.252,0.543955 0.56,0.624443 0.53334,0.139375 0.53334,0.148111 0,0.183464 -0.34078,0.02259 -0.56,0.296098 -0.56,0.698685 0,0.51594 0.14088,0.616851 0.64,0.458436 0.36714,-0.116526 0.64,-0.0575 0.64,0.138435 0,0.187861 -0.432,0.341565 -0.96,0.341565 -0.93866,0 -0.96,-0.03556 -0.96,-1.6 z m 2.24,1.480677 c 0,-2.099864 1.56845,-3.207353 2.25942,-1.595386 0.61683,1.439024 0.57161,2.439444 -0.0593,1.312043 -0.3828,-0.684021 -1.19489,-0.727502 -1.44438,-0.07733 -0.15897,0.414257 -0.75572,0.699066 -0.75572,0.360677 z m 1.6,-1.480677 c 0,-0.176 -0.0635,-0.32 -0.14111,-0.32 -0.0776,0 -0.23011,0.144 -0.33889,0.32 -0.10877,0.176 -0.0453,0.32 0.14112,0.32 0.18638,0 0.33888,-0.144 0.33888,-0.32 z m 1.6,0 c 0,-0.88 0.144,-1.6 0.32,-1.6 0.176,0 0.32,0.657703 0.32,1.461564 0,1.31594 0.0638,1.441325 0.64,1.258436 0.36714,-0.116526 0.64,-0.0575 0.64,0.138435 0,0.187861 -0.432,0.341565 -0.96,0.341565 -0.93866,0 -0.96,-0.03556 -0.96,-1.6 z m 2.76464,1.377967 c -0.11255,-0.112549 -0.20464,-0.752115 -0.20464,-1.421258 0,-1.003279 -0.0934,-1.180791 -0.53249,-1.012286 -0.35805,0.137394 -0.45669,0.08169 -0.30112,-0.170043 0.2951,-0.477474 2.75361,-0.495459 2.75361,-0.02014 0,0.19483 -0.216,0.271349 -0.48,0.170043 -0.37622,-0.144371 -0.48,0.08628 -0.48,1.066878 0,1.206599 -0.3299,1.812276 -0.75536,1.38681 z m 2.21822,-0.280825 c -0.27657,-0.276571 -0.50286,-0.770285 -0.50286,-1.097142 0,-0.326858 0.22629,-0.820572 0.50286,-1.097143 0.27657,-0.276572 0.77029,-0.502857 1.09714,-0.502857 1.36524,0 2.06761,1.726675 1.09715,2.697142 -0.27658,0.276572 -0.77029,0.502858 -1.09715,0.502858 -0.32685,0 -0.82057,-0.226286 -1.09714,-0.502858 z m 1.67314,-0.201142 c 0.91151,-0.911507 -0.0846,-2.662206 -1.056,-1.856 -0.75126,0.623493 -0.40487,2.24 0.48,2.24 0.1056,0 0.3648,-0.1728 0.576,-0.384 z m 1.40647,-0.816 c 0.16426,-2.559892 2.23792,-2.350118 2.37105,0.239857 0.0693,1.347807 -0.32882,1.726178 -0.67352,0.640143 -0.11172,-0.352 -0.40942,-0.64 -0.66156,-0.64 -0.25214,0 -0.45844,0.288 -0.45844,0.64 0,0.352 -0.15189,0.64 -0.33753,0.64 -0.20303,0 -0.29867,-0.605718 -0.24,-1.52 z m 1.85753,-0.685764 c 0,-0.15717 -0.22777,-0.37317 -0.50617,-0.48 -0.71522,-0.274456 -0.77383,-0.252813 -0.77383,0.285764 0,0.266666 0.28445,0.48 0.64,0.48 0.352,0 0.64,-0.128594 0.64,-0.285764 z m 1.17334,1.99243 c -0.11734,-0.117333 -0.21334,-0.362133 -0.21334,-0.544 0,-0.197926 0.15415,-0.176516 0.384,0.05333 0.53394,0.533932 1.216,0.480085 1.216,-0.096 0,-0.264 -0.11647,-0.48 -0.25884,-0.48 -0.64148,0 -1.36372,-0.848849 -1.16434,-1.368442 0.22861,-0.595729 1.74318,-0.778184 1.74318,-0.209994 0,0.19594 -0.27286,0.254961 -0.64,0.138436 -0.89641,-0.284511 -0.79667,0.17103 0.21387,0.976811 0.56585,0.451194 0.78512,0.860023 0.65005,1.212021 -0.20009,0.521418 -1.51116,0.737261 -1.93058,0.317834 z m 2.46956,-1.207974 c -0.34086,-0.888264 0.0231,-1.618692 0.80661,-1.618692 0.88111,0 1.50242,0.798275 1.21146,1.556504 -0.24908,0.6491 -1.77481,0.696116 -2.01807,0.06219 z m 0.4157,-0.878692 c -0.10215,-0.255275 -0.17798,-0.179449 -0.19333,0.193333 -0.0139,0.337333 0.0617,0.526333 0.16807,0.42 0.10633,-0.106333 0.1177,-0.382333 0.0253,-0.613333 z m 1.11531,-0.334097 c -0.23746,-0.237461 -0.27911,-0.112523 -0.13992,0.419748 0.11316,0.432705 0.25821,0.577758 0.3381,0.338096 0.0769,-0.230861 -0.0122,-0.571891 -0.19818,-0.757844 z m -42.29391,-0.245903 c 0,-0.176 0.144,-0.32 0.32,-0.32 0.176,0 0.32,0.144 0.32,0.32 0,0.176 -0.144,0.32 -0.32,0.32 -0.176,0 -0.32,-0.144 -0.32,-0.32 z m 5.12,0 c 0,-0.176 0.144,-0.32 0.32,-0.32 0.176,0 0.32,0.144 0.32,0.32 0,0.176 -0.144,0.32 -0.32,0.32 -0.176,0 -0.32,-0.144 -0.32,-0.32 z m -7.04,-3.68 c 0,-1.420221 0.0143,-1.439402 1.04,-1.396422 0.75208,0.03151 0.84067,0.08197 0.32,0.182256 -0.84851,0.16343 -0.97021,0.729618 -0.16,0.744343 0.53333,0.0097 0.53333,0.03042 0,0.435277 -0.77244,0.586368 -0.72084,1.271251 0.08,1.061826 0.352,-0.09205 0.64,-0.03684 0.64,0.122678 0,0.159523 -0.432,0.290042 -0.96,0.290042 -0.92444,0 -0.96,-0.05333 -0.96,-1.44 z m 2.29973,0.400382 c 0.15155,-1.571272 1.96905,-1.571599 2.12055,-3.82e-4 0.0563,0.584177 -0.0489,1.04 -0.24,1.04 -0.18715,0 -0.34028,-0.36 -0.34028,-0.8 0,-0.497778 -0.18133,-0.8 -0.48,-0.8 -0.29867,0 -0.48,0.302222 -0.48,0.8 0,0.44 -0.15312,0.8 -0.34027,0.8 -0.19112,0 -0.29632,-0.45571 -0.24,-1.039618 z m 2.5993,0.516122 c -0.41702,-1.086731 1.12515,-2.220323 1.92816,-1.417317 0.26561,0.265608 0.15252,0.335964 -0.43399,0.270009 -0.6096,-0.06855 -0.7932,0.05894 -0.7932,0.550804 0,0.453265 0.20544,0.633085 0.70409,0.616301 0.38725,-0.01304 0.63075,0.09497 0.54112,0.24 -0.29164,0.47187 -1.73958,0.278583 -1.94618,-0.259797 z m 2.46097,-0.916504 c 0,-0.792 0.144,-1.44 0.32,-1.44 0.176,0 0.32,0.144 0.32,0.32 0,0.176 0.288,0.32 0.64,0.32 0.5181,0 0.64,0.213333 0.64,1.12 0,0.616 -0.144,1.12 -0.32,1.12 -0.176,0 -0.32,-0.440499 -0.32,-0.978886 0,-0.571104 -0.1333,-0.896498 -0.32,-0.781114 -0.176,0.108774 -0.32,0.549272 -0.32,0.978885 0,0.429613 -0.144,0.781115 -0.32,0.781115 -0.176,0 -0.32,-0.648 -0.32,-1.44 z m 2.41367,1.142111 c -0.10126,-0.163839 -0.0513,-0.379982 0.11107,-0.480319 0.16235,-0.100336 0.2199,-0.470286 0.1279,-0.822111 -0.13441,-0.513965 -0.01,-0.639681 0.63503,-0.639681 0.67869,0 0.82246,0.172573 0.93307,1.12 0.13055,1.118255 -1.23898,1.741309 -1.80707,0.822111 z m 1.26633,-0.342111 c 0.10878,-0.176 0.0538,-0.32 -0.12223,-0.32 -0.176,0 -0.40899,0.144 -0.51777,0.32 -0.10877,0.176 -0.0538,0.32 0.12223,0.32 0.176,0 0.409,-0.144 0.51777,-0.32 z m -0.16,-0.96 c 0,-0.176 -0.0635,-0.32 -0.14111,-0.32 -0.0776,0 -0.23011,0.144 -0.33889,0.32 -0.10877,0.176 -0.0453,0.32 0.14112,0.32 0.18638,0 0.33888,-0.144 0.33888,-0.32 z m 1.28,0.493507 c 0,-1.074036 0.0338,-1.10383 1.15285,-1.015702 0.6719,0.05291 1.33938,-0.09575 1.6,-0.356365 0.38287,-0.382873 0.51651,-0.377798 0.92961,0.0353 0.29909,0.299096 0.3599,0.558195 0.16,0.681743 -0.45513,0.281284 -0.40133,1.356357 0.0776,1.549587 0.22,0.08877 0.076,0.172772 -0.32,0.186667 -0.55693,0.01954 -0.72,-0.151655 -0.72,-0.755852 0,-0.429613 -0.144,-0.870111 -0.32,-0.978885 -0.1867,-0.115384 -0.32,0.21001 -0.32,0.781114 0,1.217572 -0.5609,1.296948 -0.69875,0.09889 -0.0557,-0.484 -0.24525,-0.88 -0.42125,-0.88 -0.176,0 -0.36557,0.396 -0.42126,0.88 -0.14561,1.265461 -0.69874,1.086166 -0.69874,-0.226493 z m 4.45774,0.599669 c -0.30524,-0.367794 -0.32837,-0.653081 -0.0843,-1.04 0.45167,-0.716047 1.8262,-0.69729 1.96565,0.02682 0.0807,0.418821 -0.10452,0.56 -0.7345,0.56 -0.52509,0 -0.76137,0.131026 -0.62735,0.347877 0.11825,0.191333 0.48675,0.276814 0.81888,0.189959 0.33214,-0.08686 0.60389,-0.0274 0.60389,0.132122 0,0.488651 -1.49532,0.321755 -1.94226,-0.216782 z m 1.30226,-1.093176 c 0,-0.176 -0.1355,-0.32 -0.30111,-0.32 -0.16562,0 -0.39011,0.144 -0.49889,0.32 -0.10877,0.176 0.0267,0.32 0.30112,0.32 0.27438,0 0.49888,-0.144 0.49888,-0.32 z m 1.05903,1.076504 c -0.25813,-0.672677 0.27832,-1.52342 1.05527,-1.673523 0.33314,-0.06436 0.7115,-0.28036 0.8408,-0.48 0.12931,-0.19964 0.23731,0.321019 0.24,1.157019 0.005,1.621848 -1.60741,2.374166 -2.13607,0.996504 z m 1.70925,-0.276504 c 0.16263,-0.513649 -0.42372,-1.222394 -0.8125,-0.982112 -0.58229,0.359873 -0.43505,1.524414 0.1777,1.405575 0.29342,-0.05691 0.57908,-0.247463 0.6348,-0.423463 z m 2.73572,0.416 c -1.10299,-1.102995 0.0743,-3.119925 1.54809,-2.652164 0.98754,0.313434 0.73315,0.700766 -0.35533,0.541012 -0.94718,-0.139018 -0.97945,-0.104721 -0.88,0.935421 0.0915,0.957289 0.20303,1.072899 0.98324,1.019486 0.484,-0.03313 0.88,0.07487 0.88,0.24 0,0.435232 -1.72334,0.368899 -2.176,-0.08376 z m 2.496,-0.736 c 0,-0.616 0.144,-1.12 0.32,-1.12 0.176,0 0.32,0.504 0.32,1.12 0,0.616 -0.144,1.12 -0.32,1.12 -0.176,0 -0.32,-0.504 -0.32,-1.12 z m 1.28,0 c 0,-0.906667 0.12191,-1.12 0.64,-1.12 0.352,0 0.64,0.144 0.64,0.32 0,0.176 -0.144,0.32 -0.32,0.32 -0.176,0 -0.32,0.36 -0.32,0.8 0,0.44 -0.144,0.8 -0.32,0.8 -0.176,0 -0.32,-0.504 -0.32,-1.12 z m 1.7229,0.658692 c -0.34897,-0.909382 0.0296,-1.617192 0.91984,-1.719947 0.65003,-0.07503 0.87726,0.03873 0.87726,0.439182 0,0.455721 -0.0791,0.474818 -0.50439,0.121832 -0.41626,-0.345465 -0.55086,-0.343404 -0.77039,0.0118 -0.40404,0.653758 0.002,1.361302 0.67891,1.184182 0.32773,-0.0857 0.59587,-0.02531 0.59587,0.134218 0,0.479425 -1.60615,0.326357 -1.7971,-0.171267 z m 2.1171,-0.978692 c 0,-0.792 0.144,-1.44 0.32,-1.44 0.176,0 0.32,0.648 0.32,1.44 0,0.792 -0.144,1.44 -0.32,1.44 -0.176,0 -0.32,-0.648 -0.32,-1.44 z m 1.4029,0.978692 c -0.0974,-0.253719 -0.12687,-0.721719 -0.0656,-1.04 0.14941,-0.775864 1.65294,-0.791462 1.80176,-0.01869 0.0755,0.391969 -0.0969,0.56 -0.57451,0.56 -0.40244,0 -0.59569,0.140214 -0.47109,0.341815 0.11619,0.187999 0.41269,0.264518 0.65888,0.170043 0.2462,-0.09447 0.44764,-0.03229 0.44764,0.138185 0,0.493498 -1.60141,0.358628 -1.79711,-0.151351 z m 1.1571,-1.138692 c 0,-0.176 -0.144,-0.32 -0.32,-0.32 -0.176,0 -0.32,0.144 -0.32,0.32 0,0.176 0.144,0.32 0.32,0.32 0.176,0 0.32,-0.144 0.32,-0.32 z M 5.9200023,49.161046 c 3.258711,-0.366293 11.8399987,-0.358036 11.8399987,0.01139 0,0.20502 -2.5008,0.302467 -6.96,0.271204 C 5.9540843,49.40967 4.4717963,49.32383 5.9200023,49.161046 Z m 51.0399987,0.01139 c 0.12294,-0.198916 3.09666,-0.32 7.85889,-0.32 4.89408,0 7.66111,0.115577 7.66111,0.32 0,0.204646 -2.83296,0.32 -7.85888,0.32 -5.15777,0 -7.79091,-0.109985 -7.66112,-0.32 z m -10.72,-1.6 c 0,-0.176 0.144,-0.32 0.32,-0.32 0.176,0 0.32,0.144 0.32,0.32 0,0.176 -0.144,0.32 -0.32,0.32 -0.176,0 -0.32,-0.144 -0.32,-0.32 z m -20.69,-4.17325 c -11.73654,-2.32199 -9.56891,-20.146747 2.45,-20.146747 4.72229,0 6.26696,0.960116 6.56404,4.08 0.25084,2.634293 -0.0469,2.942817 -1.13735,1.178459 -2.92616,-4.734625 -9.5739,-4.063242 -11.08043,1.119059 -2.77475,9.544796 5.63944,15.940726 11.26186,8.560552 1.47808,-1.940174 1.62472,-1.77616 1.10877,1.240137 -0.61319,3.584708 -3.90462,5.009641 -9.16689,3.96854 z M 4.3200023,33.332439 v -9.76 h 6.0799987 6.08 v 1.76 c 0,2.01623 0.0679,1.970916 -1.6448,1.097144 -0.89382,-0.455993 -2.19204,-0.720694 -4.1599,-0.848186 l -2.8605907,-0.18533 0.09265,3.008186 0.09265,3.008186 1.6,-0.0012 c 0.8799987,-5.86e-4 2.1399987,-0.09953 2.7999987,-0.219834 l 1.2,-0.218729 v 1.379706 1.379706 l -2.88,-0.16421 -2.8799987,-0.16421 v 3.265423 c 0,5.398983 3.4245987,6.378156 8.0631687,2.305444 1.79752,-1.578248 1.82217,-1.491655 0.69382,2.437904 l -0.4824,1.68 h -5.8973 -5.8972887 z m 30.9235787,9.281835 c 2.43895,-6.355818 8.73284,-19.201835 9.4079,-19.201835 0.63793,0 9.58852,18.299641 9.58852,19.6039 0,0.05794 -0.95263,0.06276 -2.11696,0.01072 l -2.11695,-0.09462 -0.9508,-2.4 c -1.3237,-3.341294 -1.10212,-3.2 -5.01814,-3.2 h -3.40448 l -0.95633,2.8 -0.95634,2.8 -1.83604,0.09585 c -1.5709,0.08201 -1.80778,0.02222 -1.64038,-0.414016 z m 11.20447,-8.241835 c -0.2423,-0.572 -0.83573,-1.976 -1.31873,-3.12 -0.483,-1.144 -0.95856,-2.212883 -1.05681,-2.375296 -0.22041,-0.364364 -2.26398,4.820311 -2.29214,5.815296 -0.0195,0.688462 0.0919,0.72 2.54393,0.72 h 2.56429 z m 9.39195,-1.04 v -9.76 h 4.26192 c 7.49936,0 10.45808,1.567606 10.45808,5.540954 0,1.603507 -0.77239,2.820115 -2.28799,3.603862 l -0.95148,0.492029 0.77642,0.610732 c 0.90599,0.71265 1.22264,1.450212 2.16285,5.037944 0.49059,1.872018 0.91652,2.821107 1.45675,3.246055 1.12893,0.888013 0.98019,0.988424 -1.46408,0.988424 -2.91737,0 -3.25319,-0.359392 -3.93615,-4.212456 -0.70681,-3.987674 -1.24403,-4.537407 -4.46252,-4.56647 l -2.3338,-0.02107 -0.089,4.4 -0.089,4.4 h -1.75097 -1.75097 z m 9.6,-1.680497 c 3.82804,-1.912318 1.33436,-5.836688 -3.7818,-5.951513 l -2.1382,-0.04799 v 2.972195 c 0,2.293992 0.10953,3.041311 0.48,3.275099 0.81866,0.516619 4.21996,0.361691 5.44,-0.247791 z M 33.468391,18.53244 c -1.38192,-1.53276 -2.00522,-2.504195 -2.14645,-3.345288 -0.33897,-2.018709 -1.02477,-2.369661 -3.72554,-1.906531 -2.61336,0.448143 -3.25791,0.184579 -4.64061,-1.897605 -2.61017,-3.9306252 -3.47149,-3.6020369 -12.24509,4.671425 -2.0661537,1.948377 -3.4181777,2.717998 -4.7748077,2.717998 -1.594683,0 -1.158195,-0.717567 1.664109,-2.735725 1.452,-1.038289 3.7919987,-3.032549 5.1999987,-4.43169 8.43566,-8.382579 11.46938,-9.5939222 12.4819,-4.9839338 0.33076,1.5059388 2.89481,0.1765596 4.88576,-2.5331181 2.64834,-3.60436323 6.42629,-2.8977315 7.88232,1.4743139 1.06467,3.1969345 1.32598,3.552763 3.67267,5.001221 l 1.93096,1.191855 2.17319,-1.137091 c 4.90831,-2.5681938 8.68338,-2.2092832 10.88662,1.035033 1.07717,1.586161 1.48516,1.918417 2.96608,2.415517 0.94442,0.31701 2.56464,1.099499 3.60049,1.738864 1.7591,1.085782 2.04183,1.15925 4.28507,1.113496 2.88111,-0.05876 3.00208,0.371511 0.41086,1.461405 -2.48668,1.045927 -4.90012,0.836534 -8.1527,-0.707338 -1.36234,-0.646647 -3.18441,-1.339015 -4.04904,-1.538597 -1.58402,-0.365636 -3.45418,-1.958595 -3.45418,-2.942197 0,-2.206529 -3.76034,-2.987613 -5.77518,-1.1996 -1.77491,1.575096 -1.63423,2.470316 0.33589,2.137467 1.57409,-0.265942 1.70979,0.278225 0.39929,1.601282 -2.25146,2.273043 -3.82529,2.067755 -7.07888,-0.923358 -1.06359,-0.977791 -2.42644,-1.983639 -3.02855,-2.235217 -1.15775,-0.483739 -1.54877,-1.242634 -2.58523,-5.0174032 -1.02425,-3.7303077 -2.44236,-3.9384971 -4.99945,-0.7339538 -0.77486,0.9710529 -1.80899,2.0504868 -2.29807,2.3987421 -1.62636,1.1580719 -0.73241,1.9193479 1.96,1.6691139 2.50023,-0.232372 3.55018,0.373823 3.55018,2.049711 0,1.020484 0.47161,1.778846 2.62126,4.215079 1.57586,1.785944 1.82925,2.477618 1.15474,3.152122 -0.67903,0.679028 -1.12292,0.425343 -3.10761,-1.775999 z M 44.091151,6.4512351 c -1.17505,-0.5008377 -1.64222,-1.7093225 -1.11127,-2.8746374 0.86682,-1.9024536 3.42012,-0.9533255 3.42012,1.2713457 0,1.6391503 -0.84615,2.2267308 -2.30885,1.6032917 z"
       id="path1" />
  </g>
</svg>
