<?xml version="1.0" encoding="UTF-8" standalone="no"?>
<!-- Created with Inkscape (http://www.inkscape.org/) -->

<svg
   version="1.1"
   id="svg1"
   width="361.60001"
   height="386.88"
   viewBox="0 0 361.60001 386.88"
   xmlns="http://www.w3.org/2000/svg"
   xmlns:svg="http://www.w3.org/2000/svg">
  <defs
     id="defs1" />
  <g
     id="g1">
    <path
       style="fill:#000000"
       d="m 35.57785,385.26795 -1.55625,-0.59115 -1.27403,-0.8829 -1.27402,-0.8829 -1.11853,-1.2955 -1.11853,-1.2955 -0.97079,-1.9093 -0.97079,-1.90931 -0.6004,-2.16664 -0.60041,-2.16664 v -1.8887 -1.88871 l 0.50065,-2.67535 0.50065,-2.67535 1.33068,-2.24 1.33067,-2.24 1.43194,-1.33493 1.43194,-1.33493 1.45673,-0.62159 1.45674,-0.62159 1.12,-0.41873 1.12,-0.41873 2.19089,-0.13222 2.19089,-0.13222 2.09634,0.36507 2.09634,0.36506 1.31277,0.66053 1.31277,0.66053 1.54826,1.16188 1.54827,1.16187 1.39364,2.08 1.39364,2.08 0.65809,2.39357 0.6581,2.39357 v 3.0592 3.0592 l -0.47651,1.82944 -0.47651,1.82944 -0.98436,1.95002 -0.98437,1.95001 -1.40828,1.36869 -1.40828,1.3687 -2.66279,1.31908 -2.6628,1.31908 -3.98805,-0.0305 -3.98805,-0.0305 z m 11.47625,-4.52173 1.92,-1.47393 0.56406,-0.62583 0.56406,-0.62582 0.80436,-2.05032 0.80437,-2.05032 0.19783,-2.77652 0.19782,-2.77653 -0.39599,-2.01281 -0.396,-2.01281 -0.7454,-1.47097 -0.74539,-1.47097 -1.29337,-1.16848 -1.29337,-1.16848 -1.69149,-0.88017 -1.69149,-0.88016 -2.93319,-0.0111 -2.93319,-0.0111 -0.90681,0.6446 -0.90681,0.6446 -0.91857,0.47012 -0.91858,0.47012 -1.24291,1.41202 -1.24291,1.41202 -0.52063,1.63326 -0.52063,1.63326 -0.15626,3.33609 -0.15625,3.33608 0.38557,1.78392 0.38557,1.78391 1.00401,1.68594 1.004,1.68593 1.85553,1.35407 1.85552,1.35406 0.71327,0.22485 0.71327,0.22485 3.36,-0.0748 3.36,-0.0748 z m 81.89443,4.73561 -0.98558,-0.36183 -1.96359,-1.21291 -1.96358,-1.21292 -1.12215,-1.36944 -1.12216,-1.36944 -0.79514,-1.73764 -0.79514,-1.73765 -0.55202,-2.08 -0.55201,-2.08 0.0536,-3.03028 0.0536,-3.03029 0.69276,-2.23834 0.69275,-2.23834 1.03899,-1.6242 1.03899,-1.6242 1.28677,-1.16252 1.28677,-1.16252 0.74637,-0.48843 0.74636,-0.48843 2.4,-0.81399 2.4,-0.81399 1.94123,-0.002 1.94123,-0.002 1.8859,0.34863 1.88591,0.34863 1.45287,0.73828 1.45286,0.73828 1.65435,1.31989 1.65434,1.31988 0.99332,1.49963 0.99331,1.49964 0.64576,2.09072 0.64576,2.09073 0.33536,2.25478 0.33535,2.25477 -0.47492,2.70807 -0.47493,2.70807 -0.67198,1.77356 -0.67198,1.77355 -1.53565,1.90645 -1.53564,1.90644 -2.06659,1.12 -2.06659,1.12 -1.14235,0.4 -1.14236,0.4 -3.81728,-0.0382 -3.81728,-0.0382 z m 9.28892,-3.57768 0.94334,-0.49192 1.55765,-1.18611 1.55766,-1.18612 1.09929,-2.24 1.09928,-2.24 0.20083,-3.2 0.20082,-3.2 -0.39852,-1.92 -0.39853,-1.92 -0.73772,-1.4603 -0.73773,-1.46031 -1.29337,-1.16848 -1.29337,-1.16848 -1.69149,-0.87587 -1.69149,-0.87588 -2.72,-0.0153 -2.72,-0.0153 -1.92,1.06574 -1.92,1.06573 -1.02546,0.98295 -1.02546,0.98294 -0.8925,2.11132 -0.8925,2.11132 -0.002,4.3366 -0.002,4.3366 1.19185,2.41154 1.19186,2.41155 1.93487,1.41186 1.93488,1.41185 0.71327,0.20811 0.71327,0.2081 3.04,0.0299 3.04,0.0299 z m 82.57665,3.71813 -0.96,-0.23221 -1.19805,-0.57057 -1.19805,-0.57057 -0.96254,-1.09628 -0.96255,-1.09627 -0.75786,-1.50819 -0.75787,-1.50819 -0.36154,-2.10621 -0.36154,-2.10621 V 364.37379 353.92 h 2.06527 2.06527 l 0.0947,11.80167 0.0947,11.80166 1.18455,1.71834 1.18454,1.71833 1.16134,0.62434 1.16134,0.62433 3.27917,0.0157 3.27917,0.0157 1.57495,-0.97311 1.57494,-0.97311 0.8,-1.42689 0.8,-1.42689 0.0981,-11.76 0.0981,-11.76 h 2.06195 2.06194 l 6.6e-4,10.48 6.5e-4,10.48 -0.51338,2.79717 -0.51337,2.79716 -0.9054,1.24986 -0.9054,1.24987 -1.06188,0.77957 -1.06188,0.77957 -1.72267,0.6934 -1.72267,0.6934 -3.87733,-0.0328 -3.87733,-0.0328 z M 61.6141,369.76 v -15.84 h 6.93379 6.93379 l 2.10621,0.36067 2.10621,0.36067 0.96,0.48676 0.96,0.48676 1.03689,0.78818 1.03688,0.78818 0.96312,1.68334 0.96311,1.68335 -0.003,2.52105 -0.003,2.52104 -0.76578,1.64466 -0.76578,1.64466 -1.15619,1.27977 -1.1562,1.27977 -0.8749,0.15962 -0.8749,0.15962 -1.85561,0.51595 -1.85561,0.51595 h -5.26439 -5.26439 v 6.4 6.4 h -2.08 -2.08 z m 16.98217,-1.61123 1.6009,-0.81124 0.62727,-1.02876 0.62727,-1.02877 -0.006,-1.6 -0.006,-1.6 -0.60892,-1.34122 -0.60893,-1.34123 -1.38405,-0.7309 -1.38405,-0.7309 -5.84,-0.11839 -5.84,-0.11839 v 5.63051 5.63052 h 5.61064 5.61064 z M 91.0541,369.76 v -15.84 h 6.93379 6.93379 l 2.10621,0.36067 2.10621,0.36067 0.96,0.48318 0.96,0.48317 1.15778,0.90961 1.15777,0.9096 0.75951,1.68655 0.7595,1.68655 -0.0367,2.72 -0.0367,2.72 -1.20297,2.00841 -1.20296,2.00841 -0.8376,0.57196 -0.83759,0.57197 -1.44,0.41696 -1.44,0.41696 -0.92775,0.28267 -0.92775,0.28266 h -5.39225 -5.39225 v 6.4 6.4 h -2.08 -2.08 z m 17.17464,-1.82166 1.68575,-1.02167 0.32981,-0.94609 0.3298,-0.94608 v -1.85396 -1.85395 l -0.65454,-1.10937 -0.65454,-1.10936 -1.34546,-0.57105 -1.34546,-0.57105 -5.68,-0.12896 -5.68,-0.12896 v 5.63108 5.63108 h 5.66445 5.66445 z m 46.50536,1.79811 v -15.86356 l 8.4,0.11581 8.4,0.1158 2.24,0.59833 2.24,0.59834 1.33084,1.39211 1.33084,1.39211 0.50916,1.49431 0.50916,1.49431 v 1.93841 1.9384 l -0.88,1.73964 -0.88,1.73964 -1.6,0.99483 -1.6,0.99483 -1.14272,0.39012 -1.14272,0.39012 -0.77728,0.001 -0.77728,10e-4 0.96,0.58581 0.96,0.58582 1.65402,1.81034 1.65401,1.81034 2.90599,4.63843 2.90598,4.63843 v 0.16422 0.16421 l -2.48,-0.008 -2.48,-0.008 -2.86343,-4.68188 -2.86344,-4.68188 -1.77656,-1.91927 -1.77657,-1.91967 -1.02972,-0.43045 -1.02972,-0.43045 h -3.37028 -3.37028 v 7.04 7.04 h -2.08 -2.08 z m 16.62934,-2.04009 1.42933,-0.27578 1.18509,-1.27047 1.18509,-1.27048 0.23201,-1.54718 0.23201,-1.54717 -0.60643,-1.12273 -0.60644,-1.12273 -1.08236,-0.72656 -1.08235,-0.72656 -1.15765,-0.32157 -1.15764,-0.32156 -5.52,-0.002 -5.52,-0.002 v 5.28 5.28 l 5.52,-0.0139 5.52,-0.0139 z M 194.4141,371.68 v -13.92 h -5.28 -5.28 v -1.92 -1.92 h 12.48 12.48 v 1.92 1.92 h -5.12 -5.12 v 13.92 13.92 h -2.08 -2.08 z m 50.56,-1.92 v -15.84 h 2.02373 2.02372 l 8.29628,12.27843 8.29627,12.27843 0.0838,-12.27843 0.0838,-12.27843 h 1.91624 1.91624 v 15.84 15.84 l -2.16,-0.009 -2.16,-0.009 -8.2395,-12.39131 -8.2395,-12.39132 -5e-4,12.4 -5e-4,12.4 h -1.92 -1.92 z m 32.32,0 v -15.84 h 2.08 2.08 v 15.84 15.84 h -2.08 -2.08 z m 19.52001,1.92 v -13.92 h -5.12001 -5.12 v -1.92 -1.92 h 12.48001 12.48 v 1.92 1.92 h -5.28 -5.28 v 13.92 13.92 h -2.08 -2.08 z m 27.84,7.27905 v -6.64095 l -5.54432,-8.31905 -5.54432,-8.31905 -0.57249,-0.88 -0.57248,-0.88 h 2.55933 2.55934 l 2.96405,4.72 2.96405,4.72 0.87161,1.12 0.87161,1.12 0.87948,1.74372 0.87949,1.74371 0.48008,-0.94371 0.48008,-0.94372 4.32806,-6.64 4.32806,-6.64 h 2.39099 2.39098 l -0.52353,0.79902 -0.52354,0.79902 -5.75327,8.39367 -5.75326,8.39368 v 6.64731 6.6473 h -2.08 -2.08 z M 75.64462,348.98667 74.15513,348.24704 73.19522,347.56352 72.2353,346.88 h -0.48407 -0.48407 l -1.49306,0.64 -1.49306,0.64 h -2.9708 -2.97079 l -1.72268,-0.70249 -1.72267,-0.70249 -1.15258,-0.71159 -1.15258,-0.71159 -0.96484,-1.22592 -0.96483,-1.22592 -0.70215,-1.38559 -0.70214,-1.3856 -0.4514,-2.7744 -0.4514,-2.77441 0.51112,-3.04 0.51113,-3.04 0.64276,-1.27139 0.64276,-1.27139 1.47707,-1.68638 1.47708,-1.68638 2.4,-1.03231 2.4,-1.0323 3.04,0.007 3.04,0.007 1.49335,0.6731 1.49335,0.67309 1.78542,1.31897 1.78543,1.31897 0.96456,1.67081 0.96455,1.67081 0.63667,2.03371 0.63667,2.03371 v 2.12641 2.12641 l -0.4369,2.08814 -0.43689,2.08813 -0.68507,1.34285 -0.68507,1.34285 -0.93819,1.06854 -0.9382,1.06855 2.37698,1.17616 2.37698,1.17616 -0.53609,1.12419 -0.53609,1.12419 -0.34073,-0.0168 -0.34073,-0.0169 z m -7.64554,-4.1349 1.01846,-0.42823 -1.39242,-0.53177 L 66.2327,343.36 h -0.3893 -0.3893 v -0.12092 -0.12092 l 0.48429,-1.15908 0.4843,-1.15908 h 0.45487 0.45488 l 0.90083,0.33789 0.90083,0.33788 1.2058,0.82966 1.20579,0.82965 0.0903,-0.12754 0.0903,-0.12754 0.84015,-1.03628 0.84015,-1.03628 0.50378,-1.73297 0.50379,-1.73297 v -2.95789 -2.9579 l -0.67811,-1.85977 -0.6781,-1.85978 -1.06798,-1.24768 -1.06797,-1.24769 -1.65742,-0.713 -1.65743,-0.71301 -1.67365,-0.17273 -1.67365,-0.17274 -2.10837,0.70162 -2.10838,0.70162 -0.93362,1.06334 -0.93362,1.06333 -0.90877,1.85747 -0.90878,1.85748 -0.12936,2.95777 -0.12936,2.95777 0.67228,2.21336 0.67229,2.21335 1.23413,1.3907 1.23414,1.3907 1.89087,0.70488 1.89086,0.70489 1.64326,0.0312 1.64326,0.0312 z m 21.56964,3.01862 -1.00538,-0.25539 -1.07462,-0.66508 -1.07462,-0.66508 -0.82677,-0.90242 -0.82677,-0.90242 -0.73956,-1.92 -0.73956,-1.92 -0.15237,-10 -0.15236,-10 h 1.95869 1.9587 l 0.01,9.68 0.01,9.68 0.71017,1.7509 0.71017,1.75089 0.74694,0.37205 0.74694,0.37204 0.35706,0.35706 0.35706,0.35706 h 2.98875 2.98874 l 1.28538,-0.65574 1.28537,-0.65575 0.69992,-1.50425 0.69992,-1.50426 0.0988,-10 0.0988,-10 h 1.94185 1.94185 l -0.15933,10 -0.15934,10 -0.51017,1.6 -0.51018,1.6 -0.99275,1.20032 -0.99275,1.20032 -1.49644,0.87968 -1.49644,0.87968 -3.84,0.0629 -3.84,0.0629 z m 111.88538,-0.29947 -1.12,-0.56358 -1.6,-0.94018 -1.6,-0.94019 -0.74009,-0.80348 -0.7401,-0.80349 -1.1387,-2.32689 -1.13871,-2.32689 -0.16412,-3.46254 -0.16412,-3.46253 0.72701,-2.21057 0.72702,-2.21058 0.58506,-1.16599 0.58506,-1.16598 1.69085,-1.43293 1.69084,-1.43293 0.96,-0.47814 0.96,-0.47814 1.76,-0.41467 1.76,-0.41466 2.28446,-0.0206 2.28446,-0.0207 2.38422,1.21017 2.38422,1.21017 1.11395,0.91821 1.11395,0.91821 1.03151,1.93532 1.03152,1.93532 0.48468,2.96867 0.48468,2.96867 -0.52853,2.96072 -0.52853,2.96072 -1.54493,2.31928 -1.54492,2.31928 -1.19826,0.8 -1.19825,0.8 -1.76147,0.72 -1.76148,0.72 -3.22564,-0.0128 -3.22564,-0.0127 z m 7.66722,-2.89662 1.59408,-0.6057 1.24027,-0.98232 1.24028,-0.98232 0.8808,-1.96268 0.8808,-1.96269 0.0483,-3.40929 0.0483,-3.4093 -0.76207,-2.00817 -0.76207,-2.00817 -1.58373,-1.42391 -1.58373,-1.42391 -1.1742,-0.34231 -1.1742,-0.3423 -1.6,-0.17948 -1.6,-0.17948 -1.9024,0.67158 -1.90241,0.67158 -1.08617,1.04229 -1.08616,1.04228 -0.72436,1.44 -0.72435,1.44 -0.38362,2.43838 -0.38361,2.43838 0.20433,1.72162 0.20434,1.72162 0.31853,1.04457 0.31853,1.04457 1.2622,1.59679 1.26219,1.5968 1.21897,0.7695 1.21896,0.7695 0.77252,0.14556 0.77251,0.14556 1.67657,0.0436 1.67657,0.0436 z m 20.92741,3.19877 -1.00538,-0.25807 -1.13225,-0.69977 -1.13224,-0.69976 -0.96864,-1.10323 -0.96864,-1.10322 -0.55741,-1.68451 -0.5574,-1.68451 -0.11691,-10 -0.11691,-10 h 1.74438 1.74438 l 0.11936,10.00077 0.11935,10.00077 0.86915,1.48308 0.86914,1.48309 1.14599,0.67615 1.14599,0.67614 h 2.87445 2.87446 l 1.28538,-0.65574 1.28537,-0.65575 0.69992,-1.50425 0.69992,-1.50426 0.0988,-10 0.0988,-10 h 1.74315 1.74315 v 10.02915 10.02914 l -0.43896,1.45855 -0.43896,1.45856 -1.08104,1.34553 -1.08104,1.34552 -1.42342,0.83436 -1.42342,0.83435 -3.85658,0.078 -3.85658,0.078 z m 26.17438,-0.18144 -1.711,-0.41394 -1.32629,-0.93215 -1.32629,-0.93215 -0.72231,-1.26669 -0.72231,-1.2667 -0.33945,-1.28 -0.33945,-1.28 -0.16252,-0.56 -0.16251,-0.56 h 1.76923 1.76923 l 0.3244,1.2 0.3244,1.2 0.51542,0.73334 0.51542,0.73334 1.33251,0.84945 1.33251,0.84944 2.99228,0.1368 2.99228,0.1368 1.56864,-0.73472 1.56864,-0.73471 0.63908,-1.08316 0.63908,-1.08316 v -0.73438 -0.73439 l -0.72946,-1.08245 -0.72946,-1.08245 -1.20907,-0.67821 -1.20908,-0.67821 -1.82146,-0.40091 -1.82147,-0.40092 -0.8,-0.26015 -0.8,-0.26015 -1.92,-0.56565 -1.92,-0.56566 -1.21867,-0.79483 -1.21867,-0.79482 -0.78133,-1.33323 -0.78133,-1.33323 v -1.82464 -1.82463 l 0.62115,-1.21755 0.62115,-1.21755 1.09729,-0.96343 1.09728,-0.96343 2.54336,-0.68627 2.54336,-0.68628 0.93821,0.005 0.9382,0.005 2.28162,0.59274 2.28162,0.59273 1.44648,0.99521 1.44649,0.99521 0.8319,1.6694 0.83189,1.6694 v 0.89717 0.89717 h -1.76 -1.76 l -0.0134,-0.56 -0.0134,-0.56 -0.54659,-1.01435 -0.54659,-1.01435 -0.81833,-0.64036 -0.81833,-0.64037 -1.95122,-0.40302 -1.95122,-0.40302 -1.8298,0.40949 -1.8298,0.40949 -1.06688,1.00825 -1.06688,1.00824 -0.20139,1.15741 -0.20139,1.1574 0.99213,1.12998 0.99213,1.12998 1.99549,0.47987 1.99549,0.47986 3.14256,0.81073 3.14255,0.81072 0.85745,0.54345 0.85744,0.54345 0.90931,0.83858 0.90931,0.83857 0.64455,1.25363 0.64456,1.25363 -0.12634,1.94637 -0.12634,1.94637 -0.62753,1.27579 -0.62752,1.27578 -1.53838,1.1535 -1.53838,1.1535 -1.60603,0.37072 -1.60603,0.37071 -2.61559,-0.0272 -2.61559,-0.0272 z m 64.911,-0.25064 -1.76,-0.65519 -1.18599,-0.74806 -1.18598,-0.74807 -1.26794,-1.68483 -1.26793,-1.68484 -0.68976,-1.76 -0.68976,-1.76 -0.17589,-2.72 -0.17588,-2.72 0.36996,-1.78079 0.36996,-1.7808 0.90661,-1.8992 0.90661,-1.89921 1.32443,-1.49073 1.32443,-1.49074 2.47856,-1.0455 2.47857,-1.0455 2.74684,0.0181 2.74684,0.0181 1.77282,0.51538 1.77282,0.51537 1.55101,1.04279 1.55102,1.04278 0.8634,1.44 0.8634,1.44 0.20448,1.00874 0.20448,1.00874 -1.37856,0.26047 -1.37855,0.26046 -0.2878,0.0108 -0.2878,0.0108 -0.43823,-1.26579 -0.43823,-1.26579 -0.71397,-0.76535 -0.71397,-0.76535 -1.28,-0.6568 -1.28,-0.65681 -2.08,-0.14768 -2.08,-0.14769 -1.29894,0.35152 -1.29893,0.35153 -1.51094,1.0008 -1.51094,1.00081 -0.94926,1.37969 -0.94925,1.3797 -0.51226,2.18361 -0.51225,2.1836 0.1383,2.2417 0.1383,2.2417 0.90514,2.01693 0.90515,2.01693 1.38185,1.21636 1.38184,1.21635 1.93112,0.40981 1.93112,0.40981 2.68676,-0.16762 2.68676,-0.16762 1.94821,-1.07104 1.94822,-1.07103 v -2.6462 -2.64614 h -4 -4 v -1.6 -1.6 h 5.76 5.76 l -0.003,5.04 -0.003,5.04 -1.8372,1.16376 -1.8372,1.16376 -0.77816,0.39862 -0.77816,0.39863 -1.78184,0.42622 -1.78184,0.42622 -3.04,-0.0205 -3.04,-0.0205 z M 28.6541,334.24 v -13.6 h 9.76 9.76 v 1.6 1.6 h -8 -8 v 4.16 4.16 h 7.52 7.52 v 1.6 1.6 h -7.52 -7.52 v 4.64 4.64 h 8.32 8.32 v 1.6 1.6 h -10.08 -10.08 z m 83.07953,2.17445 4.2959,-11.45445 0.82026,-2.16 0.82026,-2.16 h 2.01858 2.01858 l 5.44904,13.61407 5.44905,13.61406 -2.09579,-0.0941 -2.09579,-0.0941 -1.43771,-4.08 -1.43772,-4.08 h -5.67906 -5.67906 l -1.43551,4.08 -1.4355,4.08 -1.93572,0.0944 -1.93572,0.0944 z m 11.24898,-3.05445 -1.2818,-3.28 -0.94465,-2.99203 -0.94465,-2.99204 -0.16345,0.16345 -0.16346,0.16346 -1.05595,2.98858 -1.05596,2.98858 -1.1305,3.12 -1.13049,3.12 h 4.57635 4.57636 z m 12.23149,0.88 v -13.6 h 1.76 1.76 v 12 12 h 6.72 6.72 v 1.6 1.6 h -8.48 -8.48 z m 31.68,0 v -13.6 h 1.92 1.92 v 5.6 5.6 h 6.88 6.88 v -5.6 -5.6 h 1.76 1.76 v 13.6 13.6 h -1.76 -1.76 v -6.4 -6.4 h -6.88 -6.88 v 6.4 6.4 h -1.92 -1.92 z m 109.44,0 v -13.6 h 1.92 1.92 v 13.6 13.6 h -1.92 -1.92 z m 9.92,0 v -13.6 h 1.87916 1.87916 l 7.00084,10.69632 7.00085,10.69631 0.0842,-10.69631 0.0843,-10.69632 h 1.75574 1.75575 v 13.6 13.6 l -2,-0.005 -2,-0.005 -6.88,-10.53155 -6.88001,-10.53154 -0.0843,10.53693 -0.0843,10.53693 h -1.7557 -1.75569 z m -203.04,-21.28086 -58.88,-0.1651 -0.08,-0.077 -0.08,-0.077 V 240.96 169.28 H 12.3321 0.49010028 l 0.082,-24.37047 0.082,-24.37048 L 90.2541,60.429597 l 89.6,-60.10944991 1.44,5.7e-4 1.44,5.7e-4 89.43511,60.15734991 89.43511,60.157353 0.2224,0.562 0.2224,0.56201 0.0225,23.92 0.0225,23.92 h -11.68 -11.68 v 71.84 71.84 l -98.32002,-0.0779 -98.32,-0.0779 z M 299.68242,203.12 l -0.0117,-60.88 -59.04384,-39.456 -59.04384,-39.456003 -0.38447,-0.14626 -0.38448,-0.14625 -58.56,39.310463 -58.56,39.31046 -0.0808,61.1718 L 63.53249,264 H 181.61332 299.69415 Z M 119.2141,215.84 v -25.76 h 62.4 62.4 v 25.76 25.76 h -62.4 -62.4 z m -0.32,-59.52 v -25.76 h 62.18755 62.18754 l 0.21246,19.25274 0.21245,19.25273 v 6.50727 6.50726 h -62.4 -62.4 z"
       id="path1" />
  </g>
</svg>
