<?xml version="1.0" encoding="UTF-8" standalone="no"?>
<!-- Created with Inkscape (http://www.inkscape.org/) -->

<svg
   version="1.1"
   id="svg1"
   width="98.556"
   height="38.444"
   viewBox="0 0 98.556 38.444001"
   xml:space="preserve"
   xmlns="http://www.w3.org/2000/svg"
   xmlns:svg="http://www.w3.org/2000/svg"><defs
     id="defs1" /><g
     id="g1"
     transform="translate(-0.77777731,-3.1111112)"><path
       style="fill:#0000ff"
       d="m 8.4797202,37.588167 -4.190889,-1.889245 -0.0054,-13.356671 -0.0054,-13.3566707 4.348889,-1.898386 4.3488878,-1.898385 12.665185,1.240894 12.665184,1.240895 0.07948,14.7342487 0.07948,14.734249 -1.910589,0.211487 -1.910589,0.211487 -9.918518,0.836058 -9.918518,0.836057 -1.068148,0.121614 -1.068148,0.121614 z m 15.1012578,-4.757215 1.44963,-0.0024 V 22.409693 11.990834 L 22.695673,11.772437 20.360739,11.55404 h -1.174695 -1.174695 v 10.854933 10.854933 l 2.06,-0.215277 2.059999,-0.215276 z m 10.825496,-0.808995 0.148729,-0.16457 -2.947977,-3.612504 -2.947977,-3.612504 1.196663,-0.592827 1.196663,-0.592826 0.856844,-1.243033 0.856845,-1.243033 0.134534,-1.795096 0.134534,-1.795096 -0.357515,-1.198661 -0.357514,-1.19866 L 31.70036,14.101073 31.080418,13.229 30.264084,12.761895 29.447751,12.29479 28.002142,12.054918 26.556533,11.815046 v 10.424181 10.424182 l 3.850606,-0.238441 3.850606,-0.238441 z m 37.986119,4.909644 -0.70468,-0.219607 0.0943,-0.337691 0.0943,-0.33769 0.99186,0.110831 0.99185,0.110831 v -0.463111 -0.463111 l -0.99185,-0.323102 -0.99186,-0.323101 -0.0965,-0.928485 -0.0966,-0.928486 0.72237,-0.303897 0.72237,-0.303897 0.83658,0.176954 0.83657,0.176954 -0.11473,0.380047 -0.11472,0.380047 -0.96618,-0.109873 -0.96619,-0.109873 v 0.462153 0.462154 l 0.96596,0.323101 0.96596,0.323101 0.33108,0.612115 0.33108,0.612115 -0.72048,0.654225 -0.72048,0.654225 -0.34767,-0.03366 -0.34767,-0.03366 z M 42.731347,34.68585 v -2.194989 h 1.351534 1.351535 l 0.479576,0.530657 0.479577,0.530656 v 0.407277 0.407277 l -0.461051,0.728352 -0.46105,0.728352 0.308458,0.210942 0.308458,0.210943 v 0.317761 0.317761 h -0.44704 -0.44704 l -0.326661,-0.675381 -0.32666,-0.675381 h -0.44704 -0.44704 v 0.675381 0.675381 h -0.457778 -0.457778 z m 2.537574,-0.296541 0.161395,-0.465387 -0.342373,-0.37884 -0.342374,-0.37884 h -0.549333 -0.549333 v 0.844227 0.844226 h 0.730311 0.730312 z m 1.735018,0.296541 v -2.194989 h 1.678519 1.678518 v 0.337691 0.33769 h -1.22074 -1.220741 v 0.485141 0.48514 l 0.991852,0.105818 0.991851,0.105818 v 0.337691 0.337691 l -0.991851,0.105818 -0.991852,0.105818 v 0.485141 0.48514 h 1.220741 1.22074 v 0.337691 0.33769 h -1.678518 -1.678519 z m 3.755207,1.772876 0.158286,-0.422113 0.678017,-1.772876 0.678016,-1.772876 h 0.506106 0.506106 l 0.826538,1.86478 0.826539,1.864779 v 0.33021 0.330209 h -0.425127 -0.425126 l -0.175666,-0.506536 -0.175666,-0.506536 h -0.934711 -0.934712 l -0.175666,0.506536 -0.175666,0.506536 h -0.457778 -0.457777 z m 2.649009,-1.519608 -0.0047,-0.253268 -0.300512,-0.506536 -0.300511,-0.506536 -0.300512,0.506536 -0.300512,0.506536 -0.0047,0.253268 -0.0047,0.253268 h 0.610371 0.61037 z m 2.140969,-0.253268 v -2.194989 h 0.457778 0.457778 v 1.857298 1.857299 h 1.068148 1.068148 v 0.337691 0.33769 H 57.07505 55.549124 Z m 4.272592,0.337691 v -1.857299 h -0.762963 -0.762962 v -0.33769 -0.337691 h 1.831111 1.831111 v 0.314204 0.314204 l -0.68667,0.107909 -0.686664,0.107909 v 1.773475 1.773474 l -0.381481,-5.98e-4 -0.381482,-5.99e-4 z m 2.946557,1.23975 -0.50507,-0.617549 v -1.018567 -1.018566 l 0.53407,-0.507545 0.53407,-0.507545 0.52548,-0.205925 0.52547,-0.205925 0.88209,0.34025 0.88209,0.34025 0.34868,0.846768 0.34867,0.846769 -0.18912,0.833783 -0.18912,0.833784 -0.5552,0.328783 -0.55521,0.328783 h -1.04091 -1.04091 z m 2.67757,-0.58849 0.47958,-0.530656 V 34.68585 34.227556 l -0.47958,-0.530657 -0.47958,-0.530657 h -0.52753 -0.52753 l -0.36623,0.405229 -0.36622,0.405229 v 0.70915 0.70915 l 0.36622,0.405229 0.36623,0.405229 h 0.52753 0.52753 z m 2.0055,-0.988951 v -2.194989 h 1.53247 1.53247 l 0.34193,0.830393 0.34194,0.830394 -0.47944,0.809639 -0.47943,0.809639 0.50154,0.554957 0.50154,0.554956 h -0.66503 -0.66503 l -0.32666,-0.675381 -0.32666,-0.675381 h -0.44704 -0.44704 v 0.675381 0.675381 h -0.45778 -0.45778 z m 2.57706,-0.138371 0.17159,-0.307217 -0.18623,-0.53701 -0.18624,-0.53701 h -0.73031 -0.73031 v 0.844227 0.844226 h 0.74495 0.74495 z m 5.73924,0.08357 -0.38148,-0.170326 v -0.329479 -0.32948 l 0.30518,0.208705 0.30519,0.208704 v -0.736659 -0.736659 l -0.50774,0.463461 -0.50775,0.463462 0.36589,-0.759804 0.36589,-0.759804 h 0.31246 0.31246 l -0.16718,0.299299 -0.16717,0.299298 0.6082,0.175988 0.6082,0.175987 -0.20572,0.593183 -0.20571,0.593182 0.35705,-0.244171 0.35704,-0.244172 v -0.469826 -0.469827 l -0.53407,-0.344202 -0.53407,-0.344201 0.32044,-0.01027 0.32044,-0.01027 0.36623,0.405229 0.36622,0.405229 v 0.414877 0.414877 l -0.47958,0.530657 -0.47957,0.530656 -0.35969,-0.02666 -0.35968,-0.02666 z m 1.14444,-0.26296 v -0.148916 l -0.28409,-0.194283 -0.2841,-0.194283 -0.19169,0.343199 -0.19169,0.343199 h 0.47578 0.47579 z M 42.120977,30.671476 v -0.130931 l 0.944321,-2.232903 0.944321,-2.232904 h 0.423871 0.423871 l 0.72858,1.604031 0.72858,1.604031 0.212683,0.759804 0.212682,0.759804 h -0.487922 -0.487922 l -0.175665,-0.506536 -0.175666,-0.506536 h -0.892482 -0.892483 l -0.175666,0.506536 -0.175665,0.506536 h -0.577719 -0.577719 z m 2.746666,-2.212973 v -0.317762 l -0.273206,-0.186835 -0.273207,-0.186835 -0.174993,0.504596 -0.174993,0.504597 h 0.4482 0.448199 z m 2.136296,1.911298 v -0.467902 l 0.19272,-0.213246 0.192719,-0.213246 0.574287,0.340086 0.574288,0.340085 0.53003,-0.329257 0.53003,-0.329257 -0.457777,-0.181535 -0.457778,-0.181536 -0.839259,-0.339352 -0.83926,-0.339352 v -0.785046 -0.785047 l 0.366223,-0.405229 0.366222,-0.405229 h 0.829558 0.829558 l 0.463468,0.196793 0.463468,0.196792 -0.160927,0.464038 -0.160928,0.464037 -0.850938,-0.188314 -0.850937,-0.188314 -0.209832,0.375677 -0.209832,0.375677 0.928938,0.205576 0.928938,0.205576 0.335456,0.447252 0.335457,0.447252 -0.09972,0.778391 -0.09972,0.778391 -1.602222,0.102071 -1.602223,0.10207 z m 3.814815,0.09492 -0.188615,-0.337691 0.181408,-0.324787 0.181408,-0.324787 0.777768,0.327203 0.777769,0.327203 0.279576,-0.191191 0.279575,-0.19119 V 29.43172 29.113958 h -0.576561 -0.576561 l -0.682948,-0.61192 -0.682949,-0.611921 0.211702,-0.738057 0.211702,-0.738057 0.711581,-0.197618 0.711581,-0.197618 0.717708,0.11241 0.717708,0.112411 v 0.506536 0.506536 l -0.991852,-0.109877 -0.991852,-0.109874 v 0.336953 0.336953 l 1.053567,0.384743 1.053567,0.384743 0.192388,0.670722 0.192387,0.670723 -0.367767,0.490331 -0.367768,0.490331 h -1.317953 -1.317954 z m 4.319892,-0.279858 -0.505077,-0.617549 V 28.49641 27.425505 l 0.61037,-0.675381 0.61037,-0.675382 h 1.045998 1.045998 l 0.63252,0.889768 0.632521,0.889767 v 0.798686 0.798686 l -0.61037,0.675381 -0.610371,0.675382 h -1.17344 -1.173441 z m 2.796888,-0.950023 0.280443,-0.554499 -0.149153,-0.631112 -0.149153,-0.631112 -0.730459,-0.20286 -0.730459,-0.202861 -0.453814,0.416749 -0.453815,0.416748 v 0.566494 0.566495 l 0.366222,0.405229 0.366222,0.405229 h 0.686762 0.686761 z m 2.208098,0.910702 -0.627101,-0.693893 v -0.798686 -0.798686 l 0.632521,-0.889767 0.632521,-0.889768 h 0.86844 0.86845 l 0.48274,0.204975 0.48274,0.204974 v 0.485709 0.485709 l -1.01143,-0.209954 -1.01142,-0.209954 -0.38534,0.513755 -0.385336,0.513756 0.09972,0.778391 0.09972,0.778391 h 1.22075 1.22074 v 0.506536 0.506536 l -1.28031,0.102935 -1.280308,0.102934 z m 3.950681,-1.731726 v -2.388595 l 0.53407,0.112674 0.53407,0.112675 0.0902,2.275921 0.0902,2.275921 h -0.62431 -0.62431 z m 1.52592,2.266458 v -0.122137 l 0.9186,-2.241697 0.91859,-2.241698 h 0.47388 0.47388 l 0.89641,2.187575 0.89642,2.187574 v 0.176261 0.17626 h -0.46736 -0.46735 l -0.17567,-0.50654 -0.17566,-0.506536 h -0.89249 -0.89248 l -0.17566,0.506536 -0.17567,0.506536 h -0.57772 -0.57772 z m 2.742,-2.157274 -0.005,-0.253268 -0.29584,-0.506536 -0.29584,-0.506536 -0.005,0.225649 -0.005,0.225649 -0.18525,0.534155 -0.18524,0.534155 h 0.49043 0.49043 z m 3.05652,0.422113 V 27.08781 h -0.76296 -0.76297 v -0.522649 -0.52265 l 1.90741,0.100536 1.90741,0.100537 v 0.33769 0.337691 l -0.68667,0.107909 -0.68666,0.10791 v 1.833812 1.833812 h -0.45778 -0.45778 z m 2.74667,-0.506536 v -2.363835 h 0.45777 0.45778 v 2.363835 2.363835 h -0.45778 -0.45777 z m 2.56346,2.105396 -0.33579,-0.248097 -0.35087,-0.737604 -0.35088,-0.737604 v -0.544086 -0.544085 l 0.74909,-0.828877 0.74909,-0.828878 h 0.89562 0.89562 l 0.63117,0.590959 0.63116,0.590959 0.18286,0.858842 0.18286,0.858842 -0.64978,0.914034 -0.64977,0.914034 -1.12229,-0.0052 -1.12229,-0.0052 z m 2.47209,-1.899747 v -0.976268 l -0.53407,-0.372767 -0.53408,-0.372767 -0.53407,0.372158 -0.53407,0.372158 -0.10211,0.574489 -0.10211,0.57449 0.17631,0.508379 0.1763,0.508379 0.99395,-0.105991 0.99395,-0.105992 z m 1.98371,-0.205649 v -2.363835 l 0.38148,-1.4e-5 0.38148,-1.5e-5 0.98039,1.266354 0.98039,1.266355 0.0115,-1.2911 0.0115,-1.291101 0.53408,0.112674 0.53407,0.112675 0.0902,2.275921 0.0902,2.275921 -0.54801,1.5e-5 -0.54802,1.4e-5 -0.9804,-1.266354 -0.98039,-1.266355 -0.0115,1.26634 -0.0115,1.26634 h -0.45778 -0.45777 z m 6.71407,1.688453 -0.61037,-0.675381 V 28.497437 27.54323 l 0.70633,-0.734246 0.70634,-0.734246 h 0.97218 0.97219 l 0.61037,0.675382 0.61037,0.675381 v 1.12958 1.129579 l -0.55811,0.558874 -0.5581,0.558874 h -1.12042 -1.12041 z m 2.68563,-0.742919 0.36622,-0.405229 v -0.566495 -0.566494 l -0.45381,-0.416748 -0.45382,-0.416749 -0.76692,0.212988 -0.76693,0.212988 v 0.950357 0.950356 l 0.20346,0.225128 0.20345,0.225127 h 0.65106 0.65107 z m 1.9545,-0.861111 0.0902,-2.279412 1.60222,-0.10207 1.60222,-0.102071 v 0.524184 0.524183 h -1.06815 -1.06814 v 0.506536 0.506536 h 0.91555 0.91556 v 0.506536 0.506536 h -0.91556 -0.91555 v 0.844227 0.844227 h -0.62432 -0.62431 z M 42.731347,22.360141 v -2.363834 h 0.435559 0.435559 l 0.937774,1.258858 0.937775,1.258858 v -1.258858 -1.258858 h 0.61037 0.61037 v 2.175059 2.17506 l -0.36112,0.246957 -0.361121,0.246956 -1.164805,-1.452374 -1.164805,-1.452374 v 1.394192 1.394193 h -0.457778 -0.457778 z m 4.268845,2.110567 -0.0037,-0.253268 0.843006,-2.101488 0.843007,-2.101488 0.528933,-0.0091 0.528933,-0.0091 0.72858,1.60403 0.72858,1.604031 0.212682,0.759804 0.212682,0.759804 H 51.134927 50.647005 L 50.471339,24.21744 50.295673,23.710904 h -1.002845 -1.002845 l -0.175666,0.506536 -0.175666,0.506536 h -0.467356 -0.467356 z m 2.745741,-2.026144 -0.0047,-0.253268 -0.295838,-0.506536 -0.295839,-0.506536 -0.0047,0.225649 -0.0047,0.225649 -0.185244,0.534155 -0.185244,0.534155 h 0.490429 0.490429 z m 3.056525,0.4456 V 21.056352 L 52.139695,20.948443 51.476933,20.840533 51.3513,20.41842 51.225668,19.996307 h 1.856543 1.856543 v 0.506536 0.506536 h -0.610371 -0.61037 v 1.857298 1.857299 h -0.457778 -0.457777 z m 2.746666,-0.530023 v -2.363834 h 0.457778 0.457778 v 2.363834 2.363835 h -0.457778 -0.457778 z m 2.275017,1.534958 -0.749091,-0.828877 v -0.712931 -0.712932 l 0.298743,-0.617661 0.298743,-0.617662 0.930597,-0.35896 0.930596,-0.358961 0.525475,0.205925 0.525475,0.205924 0.534074,0.507545 0.53407,0.507545 v 1.12958 1.129579 l -0.61037,0.675382 -0.610366,0.675381 h -0.929428 -0.929427 z m 2.604657,-0.686346 0.376632,-0.502151 -0.184037,-0.811364 -0.184038,-0.811364 -0.48252,-0.204882 -0.48252,-0.204882 -0.588262,0.348361 -0.588262,0.348361 v 0.764807 0.764807 l 0.366222,0.405229 0.366222,0.405229 h 0.511965 0.511965 z m 2.114155,1.375823 -0.12716,-0.1394 0.10233,-2.224435 0.10234,-2.224434 h 0.40952 0.40952 l 0.93777,1.258858 0.93778,1.258858 v -1.258858 -1.258858 h 0.45777 0.45778 v 2.363834 2.363835 h -0.2814 -0.28141 l -1.09193,-1.411547 -1.09192,-1.411546 v 1.411546 1.411547 h -0.40692 -0.40691 z m 4.29715,-0.113868 -8.8e-4,-0.253268 0.80962,-2.110567 0.80963,-2.110566 h 0.58372 0.58373 l 0.89641,2.187574 0.89642,2.187575 v 0.17626 0.17626 h -0.46736 -0.46735 l -0.17567,-0.506536 -0.17566,-0.506536 h -1.04508 -1.04507 l -0.17567,0.506536 -0.17566,0.506536 h -0.42513 -0.42513 z m 2.74754,-1.914103 v -0.141226 l -0.18457,-0.532215 -0.18457,-0.532216 -0.27321,0.186836 -0.27321,0.186835 v 0.486606 0.486607 h 0.45778 0.45778 z m 2.35382,1.957812 -0.21752,-0.240695 v -2.138708 -2.138707 h 0.61037 0.61037 v 1.857298 1.857299 h 1.09358 1.09358 l -0.12559,0.422113 -0.12558,0.422114 -1.36084,0.09999 -1.36084,0.09999 z"
       id="path1" /></g></svg>
