<?xml version="1.0" encoding="UTF-8" standalone="no"?>
<!-- Created with Inkscape (http://www.inkscape.org/) -->

<svg
   version="1.1"
   id="svg1"
   width="757"
   height="253"
   viewBox="0 0 757 253"
   xmlns="http://www.w3.org/2000/svg"
   xmlns:svg="http://www.w3.org/2000/svg">
  <defs
     id="defs1" />
  <g
     id="g1">
    <path
       style="fill:#0000ff"
       d="M 33,174.6644 V 132.32879 L 32.336647,82.664396 31.673295,33 H 112.83665 194 v 45.822523 45.822527 l -8.39652,7.20804 -8.39653,7.20805 -7.62558,7.9816 -7.62557,7.98161 -1.97416,3.23782 -1.97416,3.23783 -0.004,-4.57378 -0.004,-4.57379 1.60451,-9.42621 1.60451,-9.42622 3.48826,-10.5 3.48825,-10.5 5.33772,-11.25 5.33772,-11.25 h -0.31785 -0.31784 l -5.54877,6.867598 -5.54876,6.867602 -5.63238,8.64083 -5.63238,8.64083 -3.96499,8.58221 -3.965,8.58222 -2.33267,8.07988 -2.33267,8.07988 -1.08126,-3.42052 -1.08127,-3.42053 -8.12872,-26.5 -8.12873,-26.5 -8.6283,-26 -8.62831,-26 -0.34352,1.618425 -0.34352,1.618425 3.11894,12.381575 3.11893,12.381575 11.54261,40 11.54261,40 0.55191,2 0.55191,2 L 119.34038,137 101.34982,119.5 95.174908,114.68365 89,109.8673 v 0.53051 0.53052 l 12.34124,15.28583 12.34125,15.28584 9.65875,12.75574 L 133,167.01147 v 1.08057 1.08057 l -9.75,-5.24145 -9.75,-5.24145 -20,-11.98797 -20,-11.98797 -4.5,-2.92194 -4.5,-2.92194 8.5,8.19487 8.5,8.19486 12,10.17478 12,10.17478 6,4.56011 6,4.5601 4.94578,3.13531 4.94578,3.1353 h -0.7279 -0.7279 l -3.7171,-1.5531 -3.7171,-1.55311 -11.50078,-3.17064 L 95.5,171.5525 l -13,-0.0263 -13,-0.0263 -5,2.44668 -5,2.44668 13.5,0.67296 13.5,0.67295 8.707395,2.1015 8.707395,2.10149 7.79261,3.06516 7.7926,3.06516 4.5,2.41852 4.5,2.41853 -16.25,0.0452 L 96,193 v 5 5 H 72 48 v 7 7 H 40.5 33 Z M 118.60103,100.25 117.30676,96.5 111.15338,96.202283 105,95.904565 v 1.512534 1.512533 l 2.25,1.209768 2.25,1.20976 4,1.25853 4,1.25852 1.19765,0.0669 L 119.8953,104 Z M 134.96761,96.659131 139,91.318263 V 89.659131 88 h -1.83339 -1.83339 l -3.68479,3.25 -3.68479,3.25 1.18596,3.75 1.18596,3.75 h 0.29983 0.29982 z M 115.53765,89.25 l -0.67918,-2.75 -0.76238,-0.783149 -0.76239,-0.783149 -4.70591,-0.09446 -4.70591,-0.09446 -0.65142,0.651416 -0.65141,0.651417 1.5435,1.543501 1.5435,1.543501 3.89697,1.388796 3.89698,1.388797 1.35841,0.04389 1.35841,0.0439 z m 17.82789,-7.585328 1.4935,-3.083735 L 134.3705,77.790468 133.88197,77 h -0.79095 -0.79094 l -4.07189,2.94966 -4.07189,2.94966 1.09588,3.5707 1.09588,3.5707 2.76199,-2.646156 2.76199,-2.646156 z M 112.02805,77.052407 110.92963,75 h -4.53814 -4.53814 l 0.32704,1.75 0.32705,1.75 4.99628,1.66814 4.99628,1.668139 0.31323,-1.365732 0.31323,-1.365732 z M 130,70.014685 V 68 h -0.76787 -0.76786 L 124.73213,70.536051 121,73.072102 v 0.398849 0.39885 l 1.07281,2.815099 1.0728,2.8151 3.4272,-3.735315 L 130,72.02937 Z M 110.44316,69.75 109.75154,67.5 109.62577,67.347249 109.5,67.194498 107,66.986558 104.5,66.778618 102.75,66.889309 101,67 v 1.048274 1.048274 l 3.25,1.412584 3.25,1.412584 1.81739,0.03914 L 111.13478,72 Z M 123.41111,66.923275 126,63.846549 V 62.423275 61 h -1.09563 -1.09563 l -2.77085,1.973023 -2.77086,1.973023 0.48306,2.526977 L 119.23315,70 h 0.79453 0.79453 z m -15.12422,-4.934214 -0.52587,-2.010938 -2.37828,-0.596908 -2.37827,-0.596909 -1.50223,0.576462 L 100,59.93723 v 0.878571 0.87857 l 2.25,1.085134 2.25,1.085134 2.15638,0.06768 L 108.81276,64 Z m 13.27538,-4.109477 1.4304,-2.766082 -0.92396,-0.571039 -0.92396,-0.571038 -2.70051,2.322882 -2.70051,2.322882 0.71223,2.244055 0.71224,2.244055 1.48183,-1.229817 1.48184,-1.229816 z M 106.60699,55.418213 106,53.836425 V 53.418213 53 h -3 -3 v 0.916667 0.916666 l 2.75,1.004386 2.75,1.004386 0.85699,0.07895 L 107.21398,57 Z m 10.96397,-2.88617 1.61707,-2.467957 -0.34922,-1.047655 -0.34922,-1.047656 -2.24479,1.572317 L 114,51.113408 V 53.056704 55 h 0.97695 0.97694 z m 409.76102,163.560647 -3.16802,-0.80656 -4.51663,-2.64692 -4.51664,-2.64693 -2.08639,-2.93007 -2.0864,-2.93007 -1.64661,-4.31607 L 507.66467,195.5 V 184 172.5 l 1.68728,-4.43133 1.68729,-4.43133 2.54239,-3.33325 2.54239,-3.33324 5.18799,-2.68867 5.18799,-2.68867 11,-0.38716 11,-0.38717 5.56152,2.09174 5.56153,2.09174 3.2687,3.19576 3.2687,3.19576 1.94572,3.81393 1.94572,3.81392 0.94951,7.48898 0.94951,7.48899 -0.94951,7.48899 -0.94951,7.48898 -1.92542,3.77412 -1.92541,3.77412 -2.85053,2.88382 -2.85053,2.88381 -4.5,2.05688 -4.5,2.05689 -10.5,0.24582 -10.5,0.24582 z m 20.12207,-17.34674 3.25404,-3.25404 0.71791,-5.74596 0.71791,-5.74595 -0.71791,-5.74595 -0.71791,-5.74596 -3.25404,-3.25404 L 544.2,166 l -4.35,0.004 -4.35,0.004 -3.18863,1.94424 -3.18864,1.94424 -1.05579,3.80202 -1.05579,3.80202 v 6.5 6.5 l 1.05579,3.80202 1.05579,3.80202 3.18864,1.94424 3.18863,1.94424 4.35,0.004 4.35,0.004 z m 116.87013,16.86658 -4.17583,-1.35773 -3.36226,-2.07799 -3.36227,-2.07799 -2.12287,-3.79941 -2.12287,-3.79941 -0.70259,-4.75 -0.70258,-4.75 H 657.88646 668 v 1.94424 1.94423 l 2.283,2.65414 2.28299,2.65415 4.46701,0.49914 4.467,0.49915 2.75,-2.17011 2.75,-2.1701 v -1.90437 -1.90436 l -2.33845,-1.53222 -2.33845,-1.53221 -9.91155,-2.0999 -9.91155,-2.09991 -3.62421,-1.84708 -3.62421,-1.84709 -2.62579,-3.12058 L 650,177.84655 v -6.53712 -6.53712 l 2.1366,-3.80158 2.13661,-3.80157 5.11339,-2.808 5.1134,-2.80799 10.5125,-0.37908 10.51251,-0.37908 4.08646,1.10037 4.08645,1.10037 3.40104,2.2602 3.40104,2.26019 2.25,4.45382 2.25,4.45382 V 170.21189 174 h -9.5 -9.5 v -2.04545 -2.04546 L 683.54545,167.45455 681.09091,165 h -3.93467 -3.93467 l -2.26154,1.83128 -2.26154,1.83128 0.64212,2.55842 0.64213,2.55842 1.75863,0.67985 1.75863,0.67985 9.5,1.94333 9.5,1.94333 4.5,2.2964 4.5,2.29641 2.25,3.3386 2.25,3.3386 v 5.28701 5.28702 l -1.06362,2.8151 -1.06362,2.8151 -2.68638,2.84158 -2.68638,2.84159 -4,2.11365 -4,2.11365 -11,0.27989 -11,0.27989 z M 216,184 v -32 l 17.75,0.006 17.75,0.006 3.61763,1.00488 3.61763,1.00488 3.29042,2.23955 3.29042,2.23954 2.09195,2.82333 2.09195,2.82333 v 9.35334 9.35334 l -2.05201,2.82333 -2.05201,2.82333 -4.16175,2 -4.16175,2 -0.0362,0.528 -0.0362,0.52799 6.10214,7.47201 6.10215,7.472 2.98188,3.75 2.98189,3.75 H 262.80949 250.45093 L 243.47546,204.27169 236.5,192.54337 236.21826,204.27169 235.93653,216 H 225.96826 216 Z m 30.3967,-3.39239 3.33247,-1.3924 0.63705,-2.53821 0.63705,-2.5382 -0.95377,-2.5086 -0.95376,-2.5086 -1.98213,-1.0608 L 245.13148,167 H 240.56574 236 v 6.83333 6.83334 l 0.66667,0.66666 0.66666,0.66667 h 2.86546 2.86545 z M 283,184 v -32 h 25 25 v 7.5 7.5 h -15.05479 -15.05479 l 0.30479,4.75 0.30479,4.75 13.25,0.27903 13.25,0.27902 V 183.52903 190 H 316.5 303 v 5.5 5.5 h 15 15 v 7.5 7.5 h -25 -25 z m 55.5712,29.75 0.70598,-2.25 10.72856,-29.5 10.72857,-29.5 11.89449,-0.27887 11.89449,-0.27886 5.14597,14.77886 5.14597,14.77887 6.0404,17.25 6.04041,17.25 h -10.36765 -10.36766 l -1.67166,-5.03291 -1.67166,-5.0329 -10.6111,0.2829 -10.6111,0.28291 -1.47317,4.75 -1.47318,4.75 H 348.25704 337.86522 Z M 379,191.33775 v -0.66226 l -3.17193,-11.33248 -3.17193,-11.33248 -0.36058,0.36058 -0.36058,0.36057 -2.96749,10.38205 L 366,189.49578 V 190.74789 192 h 6.5 6.5 z M 415,184 v -32 h 10.10539 10.10538 l -0.35538,24.25 -0.35539,24.25 10.25,0.28498 10.25,0.28499 V 208.53498 216 h -20 -20 z m 53,7.5 V 167 h -7.5 -7.5 v -7.5 -7.5 h 25 25 v 7.5 7.5 H 495.5 488 V 191.5 216 H 478 468 Z M 584,184 v -32 h 17.8185 17.8185 l 4.9315,1.51362 4.9315,1.51362 2.17148,1.83309 2.17147,1.83308 2.07479,3.4033 2.07478,3.40329 0.004,8.10212 0.004,8.10211 -2.25144,3.39789 -2.25143,3.39788 -4.21233,2 -4.21232,2 -0.035,0.5 -0.035,0.5 5.74878,7.0368 5.74878,7.0368 3.33403,4.2132 3.33403,4.2132 H 630.80949 618.45093 L 611.47546,204.27169 604.5,192.54337 604.21826,204.27169 603.93653,216 H 593.96826 584 Z m 29.92218,-3.12272 3.22064,-1.12272 0.92859,-2.44238 L 619,174.8698 v -1.48035 -1.48036 L 616.54545,169.45455 614.09091,167 H 609.04545 604 v 6.83333 6.83334 l 0.66667,0.66666 0.66666,0.66667 h 2.68411 2.68411 z M 178,192.42511 v -0.5749 l 4.34181,-6.6751 4.3418,-6.67511 3.6582,-4.34461 L 194,169.81077 V 181.40539 193 h -8 -8 z m -8,-21.79352 v -0.48176 l 6.13553,-10.82492 6.13553,-10.82491 5.03562,-8 5.03563,-8 0.82884,-0.95 0.82885,-0.95 -0.014,13.45 -0.014,13.45 -7.73597,4.21428 -7.73596,4.21427 -4.25,2.59241 -4.25,2.5924 z m 542.75,-7.29387 1.25,-0.50439 1.25,0.50439 1.25,0.50439 h -2.5 -2.5 z m 0.5,-3 -1.25,-0.50439 v -0.70238 -0.70238 h 1.88639 1.88638 L 715.2794,159.71429 714.78602,161 714.64301,160.9211 714.5,160.8422 Z M 709,156.09844 v -0.98041 l 1.06653,-0.65915 1.06653,-0.65915 0.33261,0.35013 0.33261,0.35014 -1.39914,1.28943 L 709,157.07885 Z m 8.21057,-0.6993 L 715.92115,154 h 0.98041 0.98041 l 0.65915,1.06653 0.65915,1.06653 -0.35013,0.33261 -0.35014,0.33261 z m -161.92562,-38.51419 -1.11505,-1.11505 1.34583,-3.81449 1.34584,-3.8145 1.76356,-2.82045 1.76356,-2.82046 4.37235,-5.237567 4.37236,-5.237567 -0.7188,-1.262433 -0.71881,-1.262433 -1.50214,-1.749179 -1.50214,-1.749179 -5.34499,5.055073 -5.345,5.055072 -4.75076,2.157856 -4.75076,2.157857 -7,0.0363 -7,0.0362 -3.90498,-1.937484 -3.90498,-1.937485 -3.84502,-3.657679 L 515,89.309672 v -3.589736 -3.589737 l 0.93301,-2.454009 0.93302,-2.454009 3.22696,-3.675312 3.22697,-3.675313 4.75738,-2.410745 4.75737,-2.410745 3.98007,-0.636439 3.98007,-0.636438 3.85257,1.255964 3.85258,1.255965 4.30686,2.942601 4.30686,2.942601 -0.30686,3.120658 -0.30686,3.120658 -4.19687,3.192367 -4.19688,3.192367 -8.05312,2.681937 L 532,90.164244 v 1.382694 1.382694 l 2.14986,1.150568 2.14985,1.150568 4.51905,-0.619405 4.51905,-0.619405 5.12673,-2.347092 5.12672,-2.347092 3.70437,-3.252479 L 563,82.792816 V 79 75.207184 l 3.5135,-3.084892 3.5135,-3.084892 2.9865,-1.54438 2.9865,-1.54438 0.0995,0.27568 0.0995,0.27568 0.38403,4.242647 0.38403,4.242646 1.54574,3.699478 1.54574,3.699477 6.3067,-6.250644 6.3067,-6.250644 2.41405,-3.914583 2.41405,-3.914582 0.77144,-0.0269 0.77144,-0.0269 1.10547,2.426258 1.10548,2.426259 -0.7083,2.823741 -0.7083,2.823742 -7.99967,7.715407 -7.99967,7.715406 3.33106,2.082406 3.33105,2.082406 3.5,-0.497102 3.5,-0.497103 4.60914,-5.083886 4.60914,-5.083886 4.6408,-8.216824 4.64081,-8.216824 0.27384,-0.821359 0.27384,-0.82136 4.97622,1.196343 4.97621,1.196342 2.33813,1.455815 2.33813,1.455814 -0.64571,2.572721 -0.64572,2.572721 -2.98422,4.337421 -2.98422,4.337422 -2.44843,5.25906 -2.44842,5.25906 -0.01,1.25 L 619,95 h 1.54966 1.54966 L 625.29966,93.388047 628.5,91.776094 631.75,88.69188 635,85.607666 V 83.754173 81.90068 l 1.41758,-2.70034 1.41758,-2.70034 3.83242,-3.691163 3.83242,-3.691163 5.5,-2.549068 5.5,-2.549068 4.93428,-0.0098 L 666.36855,64 670.68428,66.089206 675,68.178413 v 1.252506 1.252506 l -4.25,1.244866 -4.25,1.244866 -4.08364,2.358084 -4.08365,2.358084 -3.64097,4.030126 -3.64098,4.030126 -0.63323,2.522976 -0.63322,2.522975 0.57646,1.502236 L 650.93723,94 h 4.40566 4.40566 l 4.01147,-1.41533 4.01147,-1.41533 4.16203,-2.627371 4.16202,-2.627371 0.36871,-1.207299 0.3687,-1.207299 0.61741,-2.809106 0.61741,-2.809105 4.17117,-4.525181 4.17116,-4.52518 4.04495,-2.120526 4.04495,-2.120527 6,0.01457 6,0.01457 4.0943,2.210055 4.09429,2.210056 2.37285,2.525783 2.37285,2.525784 -0.0777,5.378682 -0.0777,5.378683 -2.54167,4.325724 L 714.19546,93.5 711.34773,95.577668 708.5,97.655336 705.10078,98.827668 701.70155,100 697.10078,99.9902 692.5,99.9804 l -5.07886,-2.364938 -5.07887,-2.364938 -2.22898,-2.83369 -2.22898,-2.83369 -1.27112,0.958397 -1.27113,0.958397 -4.73697,3.5 -4.73698,3.5 -3.18405,1.173922 -3.18406,1.17392 -4.05366,0.0761 -4.05365,0.0761 -5.17288,-2.577754 -5.17287,-2.577753 -2.41439,-2.869339 -2.41439,-2.869339 -4.35908,4.072192 L 627.5,98.250202 624.28212,99.625101 621.06424,101 h -2.83578 -2.83577 l -5.21365,-2.598069 -5.21364,-2.598069 -1.06819,-1.995931 -1.06819,-1.99593 -2.16451,1.969036 -2.16451,1.969037 -2.44803,1.26613 -2.44803,1.26613 -5.05197,0.06618 -5.05197,0.06617 -4.85945,-1.367948 -4.85946,-1.367948 -4.80862,5.410602 -4.80862,5.41061 -3.33192,5.73917 -3.33193,5.73917 -0.55,0.0108 L 556.4,118 Z m 150.78863,-28.444966 3.57359,-2.467473 2.17641,-3.87241 L 714,78.227691 V 75.23629 72.244889 l -1.48063,-1.228816 -1.48064,-1.228816 -4.36288,2.55682 -4.36288,2.556819 -2.70768,3.549945 -2.70767,3.549944 -1.52157,3.641633 -1.52157,3.641633 0.59305,2.362916 0.59305,2.362916 3.72971,-1.551213 L 702.5,90.907458 Z M 540,82.919087 l 4.5,-2.036989 2.75,-2.62814 2.75,-2.62814 V 73.781524 71.93723 l -1.40974,-0.540969 -1.40975,-0.540969 -2.84025,1.483078 L 541.5,73.821447 538.87945,76.660724 536.25891,79.5 534.51444,82.25 532.76998,85 534.13499,84.97804 535.5,84.95608 Z M 417.00065,102.75 l 6.5e-4,-1.25 7.08795,-12.5 7.08795,-12.5 7.55616,-11.396504 7.55616,-11.396503 7.8329,-9.737938 7.83291,-9.737937 1.60412,-0.615559 L 465.16357,33 h 5.80743 5.80743 l 2.29782,1.860663 2.29783,1.860664 -2.17046,7.389336 L 477.03316,51.5 475.51658,58.815376 474,66.130752 v 1.986018 1.986017 l 8.18401,-10.301393 8.184,-10.301394 8.23822,-8.396823 8.23821,-8.396823 5.75276,0.676125 5.75277,0.676124 2.57501,1.230065 2.57502,1.230065 0.30509,2.130256 0.30508,2.130256 -5.49581,9.92651 -5.49582,9.92651 -5.44203,11.933867 -5.44203,11.933868 -2.20971,5.178697 -2.20971,5.178697 -1.65753,1.39878 L 494.5,97.654955 490.38398,98.827477 486.26796,100 h -0.74527 -0.74527 l 0.66626,-3.551463 0.66626,-3.551464 3.80201,-11.698536 3.80201,-11.698537 2.59821,-6.75 2.5982,-6.75 h -0.79985 -0.79985 l -7.72209,8.75 -7.72208,8.75 -7.18325,9.812714 -7.18325,9.812715 -3.47655,-0.536608 -3.47655,-0.536608 -2.52345,-1.875448 -2.52345,-1.875448 -0.31011,-3.646365 -0.31011,-3.646365 3.07773,-12.653343 3.07772,-12.653344 -0.38021,-0.380215 -0.38022,-0.380215 -5.46456,6.779265 -5.46457,6.779265 -4.50482,6 -4.50483,6 -5.30674,8 -5.30674,8 -2.11127,2.337318 -2.11127,2.337322 -3.37212,1.41268 L 418.75575,104 H 417.87788 417 Z m -199.66794,-3.66357 0.58272,-2.91357 7.88335,-14.367499 7.88336,-14.3675 6.40893,-10.28686 6.40893,-10.28686 5,-6.68207 5,-6.682071 2.67378,-0.309068 2.67378,-0.309067 4.12897,1.111815 4.12896,1.111815 1.94726,1.947252 L 274,39 V 57.5 76 h 0.76887 0.76888 l 6.18128,-8.75 6.18128,-8.75 9.66343,-11.75 9.66344,-11.75 h 2.98461 2.98461 l -1.85327,2.75 -1.85327,2.75 -9.87412,14.869344 -9.87412,14.869344 -6.91638,13.319218 -6.91638,13.319219 -5.42771,1.126789 -5.42771,1.126788 -3.26978,-0.315351 -3.26977,-0.315351 -0.79565,-5 -0.79566,-5 0.62982,-17.25 0.62982,-17.25 -0.84111,0.03296 -0.84111,0.03296 -5.64352,7.717038 -5.64353,7.717037 -8.98395,14 -8.98395,14 -2.08679,2.25 L 223.07147,102 H 219.91073 216.75 Z m 92.03028,0.05848 -4.137,-1.945948 -4.04576,-3.655096 -4.04575,-3.655096 -0.63586,-2.895047 -0.63586,-2.895047 1.91378,-4.299338 1.91378,-4.299338 3.35013,-3.255334 3.35014,-3.255333 4.10277,-1.986119 4.10277,-1.986119 4.54811,-0.623387 4.54811,-0.623387 4.40382,1.956676 4.40383,1.956676 3.25,2.747057 3.25,2.747057 v 2.236793 2.236792 l -2.25,2.099502 -2.25,2.099501 -5,2.453922 -5,2.453921 -5.25,1.701258 -5.25,1.701257 v 1.297189 1.297189 l 1.50663,1.250395 1.50664,1.250395 5.1806,-0.687231 5.1806,-0.68723 5.27953,-2.497621 5.27954,-2.497622 4.28323,-4.193098 L 346.5,80.5 348.25,73.835865 350,67.171731 v -2.153253 -2.153253 l 1.75,0.51407 1.75,0.51407 3.68463,0.652345 3.68463,0.652345 1.68069,1.857144 1.6807,1.857144 -0.39802,7.043828 L 363.43462,83 h 0.71812 0.71811 l 5.81457,-6.595582 5.81458,-6.595583 4.4596,0.605181 4.4596,0.605181 0.86319,0.863198 0.8632,0.863198 -0.97251,3.877203 -0.97252,3.877204 -0.67955,3 -0.67955,3 8.32927,-8.039457 8.32927,-8.039456 4,-3.042736 4,-3.042736 1.25,-0.726824 1.25,-0.726825 v 1.491588 1.491588 l -6.10114,6.93329 -6.10114,6.933289 -6.2019,8.88414 -6.2019,8.884139 -6.15502,-0.0081 -6.15502,-0.0081 -1.20675,-1.20675 -1.20675,-1.20675 -0.45902,-5.535191 L 370.75234,84 h -0.76144 -0.76144 l -4.25287,7.038748 -4.25288,7.038749 -1.79611,0.961251 L 357.13148,100 h -2.4157 -2.4157 L 348.15004,96.993728 344,93.987455 v -2.59732 -2.597319 l -3.53692,3.105452 -3.53691,3.105453 -5.06083,2.564516 -5.06083,2.564513 -6.65225,0.47906 -6.65226,0.47905 z m 13.28951,-16.851019 5.52659,-2.70611 1.91046,-2.428749 L 332,74.730283 331.98469,74.115141 331.96937,73.5 331.01342,72 l -0.95595,-1.5 -4.4161,2.329208 -4.4161,2.329207 -3.11263,4.33427 L 315,83.826955 V 84.413478 85 h 1.06295 1.06295 z M 624,56.015023 V 55.030045 L 627.08577,50.015023 630.17155,45 l 1.66422,0.0037 1.66423,0.0037 3.25,1.981564 3.25,1.981563 v 1.425805 1.425805 L 636.92327,54.411106 633.84655,57 H 628.92327 624 Z"
       id="path1" />
  </g>
</svg>
